<svg id="Layer_1" data-name="Layer 1" xmlns="http://www.w3.org/2000/svg" viewBox="0 0 223.52 222.86">
  <path d="m118.52,222.73c-21.9,1.94-79.39-17.39-80.31-39.04,1.28-4.08,4.7-4.96,8.45-5.93,70.01-18.09,113.98-62.26,131.89-132.29.93-3.65,2.03-6.74,5.84-7.94,3.96-1.25,6.69.95,9.13,3.66,28.2,31.31,37.23,67.47,24.07,107.48-13.73,44.9-53.05,71.36-99.07,74.07Z"/>
  <path d="m63.35,155.97c-27.96-53.56,37.66-120.46,92.87-91.38-4.1,28.05-61.9,84.92-92.87,91.38Z"/>
  <path d="m20.65,128.66c-7.05-.24-20.37,2.37-20.65-7.74.04-3.95,3.26-7.44,7.81-7.56,8.97-.23,17.96-.24,26.93.02,4.56.13,7.65,3.64,7.61,7.68-.45,10.47-14.46,7.14-21.7,7.6Z"/>
  <path d="m68.3,60.71c-2.61,5.14-7.57,8.11-12.57,4.94-7.2-6.42-14.05-13.27-20.58-20.38-6.18-6.06,4.31-16.85,10.48-10.4,7.73,8.65,18.4,14.67,22.66,25.84Z"/>
  <path d="m128.75,20.91c-.53,7.06,3.07,21.06-7.59,20.93-4.36-.07-7.26-2.93-7.33-7.72-.13-8.81-.13-17.63,0-26.45-.37-10.03,14.77-10.37,14.91-.24.15,4.49.01,8.98.06,13.47h-.05Z"/>
</svg>
