<?xml version="1.0" encoding="UTF-8"?>
<svg id="Layer_1" data-name="Layer 1" xmlns="http://www.w3.org/2000/svg" viewBox="0 0 212.34 212.34">
  <path d="m106.1,139.4c-1.8,1.44-3.2,2.59-4.63,3.71-8.87,6.95-18.56,12.34-29.51,15.24-1.44.38-2.91.7-4.39.82-2.07.17-3.65-.84-4.13-2.86-1.16-4.85-2.32-9.71-3.13-14.63-.58-3.51.25-4.51,4.09-5.57,8.65-2.39,16.34-6.54,23.26-12.2.77-.63,1.68-1.09,2.52-1.63-3.29-5-6.28-9.2-8.91-13.61-2.9-4.85-5.58-9.84-8.15-14.88-1.04-2.04-2.27-3-4.61-2.92-3.99.14-8,.1-11.99.01-4.59-.11-5.95-1.44-6.05-5.98-.09-4-.1-8,0-11.99.11-4.36,1.34-5.58,5.76-5.6,10.83-.06,21.66-.02,32.48-.02,1.64,0,3.27,0,5.64,0,0-3.21-.07-5.98.02-8.75.13-4.26,1.14-5.35,5.33-5.47,4.33-.12,8.66-.12,12.99,0,4.12.12,5.16,1.26,5.3,5.53.08,2.64.02,5.28.02,8.42,2.16.1,3.93.24,5.69.25,10.49.02,20.99,0,31.48.02,5.69.02,6.68,1.01,6.74,6.67.04,3.5.05,7,0,10.49-.09,5.11-1.37,6.36-6.62,6.43-3.83.06-7.66.08-11.49,0-2.02-.04-3.26.59-4.36,2.47-5.27,9.05-10.75,17.97-16.15,26.95-.25.42-.39.9-.7,1.67,6.66,6.13,14.26,10.7,22.99,13.38,7.18,2.21,7.4,2.56,5.79,9.77-.72,3.25-1.35,6.52-2.17,9.74-1.02,4-2.41,5.02-6.45,4.08-3.71-.86-7.36-2.09-10.91-3.48-7.8-3.07-14.85-7.47-21.4-12.69-1.29-1.03-2.6-2.02-4.34-3.37Zm.13-57.22c-4.48,0-8.97-.13-13.45.03-5.34.19-7.27,3.3-4.59,7.97,4.21,7.33,8.68,14.52,13.39,21.54,2.9,4.33,6.2,4.36,9.06.11,4.72-7.01,9.21-14.19,13.43-21.52,2.83-4.91.84-7.95-4.88-8.11-4.32-.12-8.64-.02-12.95-.02Z"/>
  <path d="m102.24,16.49c0-3.99-.09-7.98.03-11.97.1-3.16,1.54-4.62,4.06-4.52,2.3.09,3.69,1.47,3.72,4.35.1,8.31.1,16.62,0,24.93-.04,2.75-1.63,4.33-3.8,4.38-2.3.06-3.9-1.68-3.98-4.71-.11-4.15-.03-8.31-.03-12.47Z"/>
  <path d="m17,102.24c3.99,0,7.98-.09,11.97.03,3.02.09,4.77,1.69,4.71,3.99-.06,2.31-1.75,3.79-4.88,3.82-7.98.09-15.96.09-23.94,0-3.28-.03-4.76-1.32-4.85-3.75-.1-2.66,1.45-4,5.03-4.08,3.99-.09,7.98-.02,11.97-.02h0Z"/>
  <path d="m195.82,102.24c3.99,0,7.98-.09,11.97.03,3.18.1,4.63,1.51,4.55,4.04-.08,2.31-1.45,3.71-4.33,3.75-8.31.1-16.62.1-24.93,0-2.75-.03-4.34-1.61-4.41-3.78-.07-2.32,1.64-3.92,4.69-4.01,4.15-.12,8.31-.03,12.47-.03Z"/>
  <path d="m110.11,195.8c0,3.82.07,7.65-.02,11.47-.08,3.61-1.38,5.15-4.04,5.07-2.44-.07-3.76-1.55-3.79-4.81-.08-7.98-.08-15.96,0-23.94.03-3.15,1.48-4.84,3.77-4.93,2.44-.1,3.98,1.75,4.05,5.16.09,3.99.02,7.98.02,11.97Z"/>
  <path d="m182.54,177.97c-.06,2.82-1.78,4.6-3.93,4.34-1.22-.15-2.61-.77-3.48-1.62-5.73-5.57-11.39-11.21-16.97-16.92-2.26-2.32-2.39-4.37-.78-6.13,1.74-1.9,4-1.8,6.49.62,5.6,5.46,11.13,10.99,16.61,16.58.99,1.01,1.59,2.41,2.06,3.13Z"/>
  <path d="m33.82,29.4c1.56,1.05,2.92,1.7,3.93,2.7,5.46,5.35,10.84,10.79,16.24,16.2.35.35.69.72,1,1.11,1.42,1.82,1.54,3.69-.12,5.37-1.65,1.67-3.58,1.74-5.35.22-1.76-1.51-3.38-3.2-5.02-4.84-4.35-4.34-8.69-8.71-13.03-13.06-1.43-1.43-2.1-3.23-1.07-4.96.66-1.11,2.12-1.74,3.42-2.74Z"/>
  <path d="m182.86,33.83c-.93,1.45-1.45,2.7-2.33,3.59-5.58,5.7-11.19,11.37-16.9,16.93-2.23,2.17-4.43,2.2-6.14.51-1.71-1.69-1.69-3.9.48-6.12,5.69-5.82,11.5-11.52,17.27-17.27,1.43-1.43,3.23-2.1,4.96-1.05,1.1.67,1.71,2.14,2.67,3.41Z"/>
  <path d="m33.87,182.91c-1.27-.85-2.81-1.34-3.23-2.3-.52-1.21-.72-3.39,0-4.15,6.3-6.61,12.77-13.07,19.35-19.41,1.48-1.42,3.46-.98,4.92.54,1.46,1.52,1.52,3.26.34,4.98-.46.68-1.06,1.28-1.64,1.87-5.16,5.18-10.31,10.38-15.54,15.49-1.13,1.11-2.61,1.86-4.2,2.97Z"/>
</svg>